<?xml version="1.0" encoding="UTF-8"?>
<!DOCTYPE svg PUBLIC "-//W3C//DTD SVG 1.1//EN" "http://www.w3.org/Graphics/SVG/1.1/DTD/svg11.dtd">
<svg xmlns="http://www.w3.org/2000/svg" version="1.1" width="48px" height="48px" style="shape-rendering:geometricPrecision; text-rendering:geometricPrecision; image-rendering:optimizeQuality; fill-rule:evenodd; clip-rule:evenodd" xmlns:xlink="http://www.w3.org/1999/xlink">
<g><path style="opacity:0.599" fill="#eb3049" d="M 31.5,13.5 C 31.5,13.8333 31.5,14.1667 31.5,14.5C 28.6867,10.9021 25.8533,7.23545 23,3.5C 20.1563,7.86176 17.3229,12.1951 14.5,16.5C 12.7376,17.2623 11.7376,18.5956 11.5,20.5C 10.5,21.1667 9.5,21.8333 8.5,22.5C 8.5,22.1667 8.5,21.8333 8.5,21.5C 13.4827,14.8465 18.4827,8.17982 23.5,1.5C 26.6107,5.26365 29.2774,9.26365 31.5,13.5 Z"/></g>
<g><path style="opacity:1" fill="#ec0102" d="M 31.5,14.5 C 31.8333,15.1667 32.1667,15.8333 32.5,16.5C 26.5,17.8333 20.5,17.8333 14.5,16.5C 17.3229,12.1951 20.1563,7.86176 23,3.5C 25.8533,7.23545 28.6867,10.9021 31.5,14.5 Z"/></g>
<g><path style="opacity:1" fill="#e30001" d="M 14.5,16.5 C 20.5,17.8333 26.5,17.8333 32.5,16.5C 33.4884,17.795 34.4884,19.1283 35.5,20.5C 27.5,21.8333 19.5,21.8333 11.5,20.5C 11.7376,18.5956 12.7376,17.2623 14.5,16.5 Z"/></g>
<g><path style="opacity:0.607" fill="#cf2239" d="M 31.5,13.5 C 34.3172,16.4257 37.1506,19.4257 40,22.5C 40.747,24.9278 39.9137,26.5944 37.5,27.5C 37.1667,27.5 36.8333,27.5 36.5,27.5C 37.1667,26.5 37.8333,25.5 38.5,24.5C 38.2624,22.5956 37.2624,21.2623 35.5,20.5C 34.4884,19.1283 33.4884,17.795 32.5,16.5C 32.1667,15.8333 31.8333,15.1667 31.5,14.5C 31.5,14.1667 31.5,13.8333 31.5,13.5 Z"/></g>
<g><path style="opacity:1" fill="#dc0001" d="M 11.5,20.5 C 19.5,21.8333 27.5,21.8333 35.5,20.5C 37.2624,21.2623 38.2624,22.5956 38.5,24.5C 28.5,24.5 18.5,24.5 8.5,24.5C 7.49367,24.0623 7.49367,23.3957 8.5,22.5C 9.5,21.8333 10.5,21.1667 11.5,20.5 Z"/></g>
<g><path style="opacity:1" fill="#d50000" d="M 8.5,24.5 C 18.5,24.5 28.5,24.5 38.5,24.5C 37.8333,25.5 37.1667,26.5 36.5,27.5C 35.5,28.1667 34.5,28.8333 33.5,29.5C 26.5,29.5 19.5,29.5 12.5,29.5C 11.1667,27.8333 9.83333,26.1667 8.5,24.5 Z"/></g>
<g><path style="opacity:0.754" fill="#aa0c1d" d="M 8.5,21.5 C 8.5,21.8333 8.5,22.1667 8.5,22.5C 7.49367,23.3957 7.49367,24.0623 8.5,24.5C 9.83333,26.1667 11.1667,27.8333 12.5,29.5C 15.9315,34.0279 19.5982,38.3612 23.5,42.5C 26.8574,38.148 30.1907,33.8147 33.5,29.5C 34.5,28.8333 35.5,28.1667 36.5,27.5C 36.8333,27.5 37.1667,27.5 37.5,27.5C 32.842,33.4699 28.1753,39.4699 23.5,45.5C 18.2493,38.6888 12.7493,32.0221 7,25.5C 6.2274,23.6476 6.7274,22.3143 8.5,21.5 Z"/></g>
<g><path style="opacity:1" fill="#c60000" d="M 12.5,29.5 C 19.5,29.5 26.5,29.5 33.5,29.5C 30.1907,33.8147 26.8574,38.148 23.5,42.5C 19.5982,38.3612 15.9315,34.0279 12.5,29.5 Z"/></g>
</svg>
