<?xml version="1.0" encoding="UTF-8"?>
<!DOCTYPE svg PUBLIC "-//W3C//DTD SVG 1.1//EN" "http://www.w3.org/Graphics/SVG/1.1/DTD/svg11.dtd">
<svg xmlns="http://www.w3.org/2000/svg" version="1.1" width="48px" height="48px" style="shape-rendering:geometricPrecision; text-rendering:geometricPrecision; image-rendering:optimizeQuality; fill-rule:evenodd; clip-rule:evenodd" xmlns:xlink="http://www.w3.org/1999/xlink">
<g><path style="opacity:0.965" fill="#f2344c" d="M 42.5,15.5 C 42.7845,17.4147 42.4511,19.0813 41.5,20.5C 41.5,20.1667 41.5,19.8333 41.5,19.5C 41.5,18.5 41.5,17.5 41.5,16.5C 40.3384,11.5084 37.1717,8.84172 32,8.5C 28.8464,9.16021 26.0131,10.4935 23.5,12.5C 15.5653,6.14844 9.56535,7.48177 5.5,16.5C 5.5,17.5 5.5,18.5 5.5,19.5C 5.5,20.5 5.5,21.5 5.5,22.5C 5.83333,23.1667 6.16667,23.8333 6.5,24.5C 5.83333,24.5 5.16667,24.5 4.5,24.5C 1.97695,12.189 6.97695,6.68898 19.5,8C 20.9663,8.63547 22.2997,9.46881 23.5,10.5C 30.2498,6.00928 36.4164,6.67594 42,12.5C 42.4828,13.448 42.6495,14.448 42.5,15.5 Z"/></g>
<g><path style="opacity:1" fill="#f20102" d="M 41.5,16.5 C 29.5,16.5 17.5,16.5 5.5,16.5C 9.56535,7.48177 15.5653,6.14844 23.5,12.5C 26.0131,10.4935 28.8464,9.16021 32,8.5C 37.1717,8.84172 40.3384,11.5084 41.5,16.5 Z"/></g>
<g><path style="opacity:1" fill="#e90000" d="M 5.5,16.5 C 17.5,16.5 29.5,16.5 41.5,16.5C 41.5,17.5 41.5,18.5 41.5,19.5C 29.5,19.5 17.5,19.5 5.5,19.5C 5.5,18.5 5.5,17.5 5.5,16.5 Z"/></g>
<g><path style="opacity:1" fill="#e30000" d="M 5.5,19.5 C 17.5,19.5 29.5,19.5 41.5,19.5C 41.5,19.8333 41.5,20.1667 41.5,20.5C 41.5,21.1667 41.5,21.8333 41.5,22.5C 29.5,22.5 17.5,22.5 5.5,22.5C 5.5,21.5 5.5,20.5 5.5,19.5 Z"/></g>
<g><path style="opacity:0.624" fill="#cb2136" d="M 42.5,15.5 C 43.9813,19.7885 43.3146,23.7885 40.5,27.5C 40.5,26.8333 40.1667,26.5 39.5,26.5C 40.1667,25.1667 40.8333,23.8333 41.5,22.5C 41.5,21.8333 41.5,21.1667 41.5,20.5C 42.4511,19.0813 42.7845,17.4147 42.5,15.5 Z"/></g>
<g><path style="opacity:1" fill="#d80000" d="M 5.5,22.5 C 17.5,22.5 29.5,22.5 41.5,22.5C 40.8333,23.8333 40.1667,25.1667 39.5,26.5C 39.5,27.1667 39.1667,27.5 38.5,27.5C 28.5,27.5 18.5,27.5 8.5,27.5C 7.59872,26.7095 6.93205,25.7095 6.5,24.5C 6.16667,23.8333 5.83333,23.1667 5.5,22.5 Z"/></g>
<g><path style="opacity:0.649" fill="#b41423" d="M 4.5,24.5 C 5.16667,24.5 5.83333,24.5 6.5,24.5C 6.93205,25.7095 7.59872,26.7095 8.5,27.5C 9.83333,29.5 11.5,31.1667 13.5,32.5C 13.8333,33.1667 14.1667,33.8333 14.5,34.5C 14.1667,34.5 13.8333,34.5 13.5,34.5C 9.13252,32.4553 6.13252,29.122 4.5,24.5 Z"/></g>
<g><path style="opacity:1" fill="#cd0000" d="M 8.5,27.5 C 18.5,27.5 28.5,27.5 38.5,27.5C 37.1667,29.5 35.5,31.1667 33.5,32.5C 26.8333,32.5 20.1667,32.5 13.5,32.5C 11.5,31.1667 9.83333,29.5 8.5,27.5 Z"/></g>
<g><path style="opacity:1" fill="#c00000" d="M 13.5,32.5 C 20.1667,32.5 26.8333,32.5 33.5,32.5C 30.4988,35.4926 27.1654,38.1593 23.5,40.5C 20.6434,38.2417 17.6434,36.2417 14.5,34.5C 14.1667,33.8333 13.8333,33.1667 13.5,32.5 Z"/></g>
<g><path style="opacity:0.798" fill="#9c0817" d="M 39.5,26.5 C 40.1667,26.5 40.5,26.8333 40.5,27.5C 39.4322,30.0752 37.7655,32.2419 35.5,34C 31.3612,36.6391 27.3612,39.4724 23.5,42.5C 19.8346,40.1593 16.5012,37.4926 13.5,34.5C 13.8333,34.5 14.1667,34.5 14.5,34.5C 17.6434,36.2417 20.6434,38.2417 23.5,40.5C 27.1654,38.1593 30.4988,35.4926 33.5,32.5C 35.5,31.1667 37.1667,29.5 38.5,27.5C 39.1667,27.5 39.5,27.1667 39.5,26.5 Z"/></g>
</svg>
